<svg width="36" height="36" viewBox="0 0 36 36" fill="none" xmlns="http://www.w3.org/2000/svg">
<path d="M36 8.50602V27.4816C36.0011 28.5999 35.7818 29.7074 35.3546 30.7408C34.9274 31.7743 34.3007 32.7134 33.5104 33.5045C32.72 34.2956 31.7815 34.9232 30.7485 35.3514C29.7154 35.7796 28.6081 36 27.4899 36H8.51427C6.25719 35.9989 4.09282 35.1021 2.49644 33.5065C0.900059 31.9109 0.00218977 29.7469 4.00243e-06 27.4899V8.51427C-0.00108058 7.3962 0.21827 6.28889 0.64551 5.25567C1.07275 4.22245 1.6995 3.2836 2.4899 2.49281C3.2803 1.70203 4.21885 1.07483 5.25186 0.647086C6.28487 0.219346 7.39208 -0.000541749 8.51014 1.00231e-06H27.4857C28.6033 -0.000540849 29.71 0.219044 30.7427 0.646218C31.7754 1.07339 32.7139 1.69979 33.5045 2.48965C34.2951 3.2795 34.9224 4.21735 35.3506 5.24964C35.7788 6.28193 35.9995 7.38845 36 8.50602Z" fill="#A1EBBB"/>
<g style="mix-blend-mode:soft-light" opacity="0.4">
<path d="M18.0853 14.033L17.1035 19.1935L18.0853 19.9773V14.033Z" fill="black"/>
</g>
<path d="M18.1525 28.4062H17.9407C15.2116 28.3449 12.0921 26.9183 11.2738 23.8648C11.255 23.8141 11.2472 23.76 11.2509 23.7061C11.2546 23.6522 11.2696 23.5997 11.2951 23.5518C11.3206 23.504 11.3559 23.4619 11.3989 23.4283C11.4418 23.3946 11.4914 23.3702 11.5445 23.3565C11.5976 23.3428 11.653 23.3401 11.7072 23.3487C11.7614 23.3572 11.8132 23.3768 11.8592 23.4062C11.9053 23.4356 11.9446 23.4741 11.9747 23.5193C12.0048 23.5645 12.025 23.6153 12.0339 23.6686C12.7525 26.3297 15.5273 27.5764 17.9573 27.6296C20.2751 27.6746 23.3116 26.5493 24.2753 23.5326C24.3258 23.4614 24.3981 23.4078 24.4817 23.3797C24.5652 23.3517 24.6557 23.3505 24.74 23.3765C24.8243 23.4025 24.898 23.4542 24.9503 23.5242C25.0027 23.5941 25.031 23.6787 25.0312 23.7656C24.1465 26.5248 21.459 28.4062 18.1525 28.4062Z" fill="black"/>
<g clip-path="url(#clip0_54_565)">
<path d="M23.2594 16.0312C23.2113 16.0307 23.1635 16.0224 23.118 16.0065C23.058 15.9877 23.0022 15.957 22.9538 15.9162C22.9055 15.8753 22.8655 15.8251 22.8362 15.7684C22.8069 15.7117 22.7889 15.6497 22.7832 15.5859C22.7775 15.5222 22.7842 15.4578 22.8029 15.3967C23.0317 14.5973 23.5111 13.8964 24.1677 13.4015C24.8243 12.9065 25.6219 12.6449 26.4382 12.6566C27.2535 12.649 28.0492 12.9122 28.705 13.4065C29.3608 13.9008 29.8411 14.5994 30.0734 15.3967C30.1099 15.5207 30.0969 15.6545 30.0371 15.7687C29.9773 15.883 29.8757 15.9685 29.7543 16.0065C29.6944 16.0262 29.6312 16.0335 29.5685 16.0279C29.5058 16.0224 29.4448 16.0041 29.3891 15.9741C29.3334 15.9442 29.2842 15.9032 29.2442 15.8536C29.2043 15.8039 29.1745 15.7467 29.1565 15.6851C28.9814 15.0857 28.6199 14.5606 28.1267 14.189C27.6334 13.8174 27.0352 13.6194 26.422 13.6249C25.8116 13.623 25.217 13.8226 24.727 14.194C24.2371 14.5653 23.8781 15.0884 23.7037 15.6851C23.6737 15.7826 23.6149 15.8681 23.5354 15.9301C23.4558 15.9921 23.3594 16.0274 23.2594 16.0312Z" fill="black"/>
<path d="M6.10667 16.0312C6.0585 16.0317 6.01063 16.0233 5.96534 16.0065C5.90497 15.9881 5.84876 15.9577 5.79998 15.9171C5.7512 15.8764 5.7108 15.8262 5.68114 15.7695C5.65147 15.7128 5.63312 15.6507 5.62715 15.5867C5.62117 15.5227 5.6277 15.4581 5.64634 15.3967C5.87622 14.5979 6.3558 13.8978 7.01195 13.4031C7.66809 12.9084 8.46479 12.6462 9.28055 12.6565C10.096 12.6475 10.8921 12.9102 11.5479 13.4048C12.2038 13.8993 12.6837 14.5986 12.9148 15.3967C12.934 15.4578 12.9412 15.5222 12.9357 15.5862C12.9303 15.6502 12.9123 15.7124 12.883 15.7692C12.8537 15.826 12.8135 15.8763 12.7649 15.917C12.7162 15.9578 12.6601 15.9882 12.5998 16.0065C12.4782 16.0452 12.3466 16.0331 12.2338 15.9728C12.121 15.9126 12.0362 15.8091 11.9981 15.6851C11.8232 15.0863 11.4625 14.5617 10.9702 14.1902C10.4779 13.8186 9.88072 13.6202 9.26844 13.6249C8.65753 13.622 8.06217 13.8212 7.57152 14.1927C7.08088 14.5641 6.72136 15.0877 6.54682 15.6851C6.51762 15.7822 6.45959 15.8677 6.38075 15.9297C6.3019 15.9917 6.20614 16.0272 6.10667 16.0312Z" fill="black"/>
</g>
<defs>
<clipPath id="clip0_54_565">
<rect width="24.5981" height="8.42764" fill="white" transform="translate(5.625 10.6875)"/>
</clipPath>
</defs>
</svg>
